<?xml version="1.0" encoding="utf-8"?>
<!-- Svg Vector Icons : http://www.onlinewebfonts.com/icon -->
<!DOCTYPE svg PUBLIC "-//W3C//DTD SVG 1.1//EN" "http://www.w3.org/Graphics/SVG/1.1/DTD/svg11.dtd">
<svg version="1.1" xmlns="http://www.w3.org/2000/svg" xmlns:xlink="http://www.w3.org/1999/xlink" x="0px" y="0px" viewBox="0 0 1000 1000" enable-background="new 0 0 1000 1000" xml:space="preserve">
<metadata> Svg Vector Icons : http://www.onlinewebfonts.com/icon </metadata>
<g><path d="M73.5,697.1c9.9,19.3,14.9,40.2,27,58.3c23.1,44,55,84.7,92.4,119.4c19.8,12.7,36.3,28.6,56.1,41.3c17.6,11.5,36.9,20.9,55,30.8c28.1,11,55,22.6,84.2,29.7c11.6,1.1,21.5,6.6,33,6.6l47.9,5.5c24.8,2.7,50.6,0.5,75.9-1.1c56.7-4.4,106.7-23.1,156.8-45.1c86.4-42.9,163.9-117.2,206.3-205.2c31.9-66.6,49.5-142.5,47.3-215.1c0-9.4-2.7-23.1-1.6-31.9c-4.4-17.1-3.8-33-8.3-49c-26.4-122.7-105.1-237.1-220.6-301.5c-20.9-15.4-45.1-22-68.2-31.4c-81.4-30.8-184.3-36.3-270.1-13.2C263.9,123.3,150.6,211.9,93.9,328c-1.1,1.1-2.7,1.1-1.7,3.3C37.2,442.4,27.9,577.7,73.5,697.1L73.5,697.1z M598.4,785.7c-14.3,12.1-31.9,22-53.4,17.1c-15.4-3.9-28.6-14.9-36.9-29.2c-7.7-14.3-10.4-38,0-52.3c9.4-16,27.5-29.2,46.2-29.7c21.5,1.1,44.6,10.5,52.8,32.5C618.7,744.4,612.1,768.1,598.4,785.7L598.4,785.7z M103.8,355.5c36.3-84.2,111.7-165,194.7-204.7c25.9-13.7,52.3-26.4,80.9-30.8c12.7,0,23.7-3.3,36.3-3.3l33,3.3c7.1,1.6,13.8,6.6,21.5,5c37.4,6,72.1,26.4,100.7,53.4c52.3,53.9,73.2,133.7,52.3,203.6c-10.5,34.7-31.4,67.7-58.9,92.4c-33.6,23.7-67.7,45.7-100.1,72.6c-39.1,28.1-82.5,58.3-101.2,103.4c-15.4,22.6-18.2,50.1-23.1,77c-8.2,80.3,31.4,163.4,104,205.2c14.3,9.9,31.4,14.3,46.2,22.6c17,2.8,31.9,9.9,48.4,9.9c1.7,1.1-0.6,1.1,0.6,1.6c-39.6,6.6-90.8,2.2-132.6-6.6c-112.2-23.7-219-98.5-278.4-198.6l-17.1-30.3C52.1,620.1,49.3,467.2,103.8,355.5L103.8,355.5z"/><path d="M377.8,337.3c-7.2-21.5-2.2-46.8,14.8-62.7c16-11.6,36.3-21.5,56.7-14.3c15.4,5.5,31.4,17.1,39.1,31.4c7.2,15.4,5,35.2-2.2,50.1c-10.4,20.4-33,28.1-52.3,35.2C409.1,377.5,387.1,359.3,377.8,337.3L377.8,337.3z"/><path d="M321.2,22.1l0.5-0.5l1.7,2.2C322.9,23.2,322.3,22.6,321.2,22.1L321.2,22.1z"/><path d="M387.2,11.1h-0.6l0,0H387.2z"/><path d="M393.3,10.5c0-0.5,0.5-0.5,1.6-0.5C394.4,11.1,393.8,10.5,393.3,10.5L393.3,10.5z"/></g>
</svg>