<?xml version="1.0" standalone="no"?>
<!DOCTYPE svg PUBLIC "-//W3C//DTD SVG 20010904//EN"
 "http://www.w3.org/TR/2001/REC-SVG-20010904/DTD/svg10.dtd">
<svg version="1.0" xmlns="http://www.w3.org/2000/svg"
 width="1280.000000pt" height="1280.000000pt" viewBox="0 0 1280.000000 1280.000000"
 preserveAspectRatio="xMidYMid meet">
<metadata>
Created by potrace 1.15, written by Peter Selinger 2001-2017
</metadata>
<g transform="translate(0.000000,1280.000000) scale(0.100000,-0.100000)"
fill="#000000" stroke="none">
<path d="M4976 6773 c-314 -291 -458 -410 -578 -473 -51 -27 -74 -50 -50 -50
4 0 221 9 482 20 261 11 630 24 820 30 381 11 1340 12 1408 2 l44 -7 -78 -110
c-82 -115 -145 -198 -329 -430 -249 -314 -363 -472 -865 -1205 -752 -1097
-1057 -1501 -1438 -1902 -51 -53 -81 -93 -76 -98 5 -5 82 -2 189 8 255 23
1219 22 1770 -2 220 -10 479 -20 575 -21 349 -7 470 -32 607 -126 30 -21 51
-48 75 -96 41 -84 47 -166 24 -314 -13 -81 -14 -104 -4 -110 8 -5 22 9 41 44
158 283 302 498 486 725 64 79 125 154 135 168 11 13 17 26 14 29 -2 3 -63 -4
-134 -14 -301 -45 -318 -46 -1124 -46 -551 0 -820 4 -930 13 -172 15 -491 49
-531 58 -26 5 -17 20 345 562 204 306 455 672 558 814 103 141 274 382 379
535 545 791 912 1258 1258 1600 119 118 142 145 132 157 -7 8 -18 13 -25 10
-7 -3 -75 -11 -152 -19 -76 -8 -159 -17 -184 -20 -25 -3 -54 -6 -65 -6 -11 0
-58 -1 -105 -2 -194 -5 -534 2 -874 17 -198 9 -408 18 -466 20 -314 11 -815
37 -890 46 -47 6 -124 20 -171 31 -72 17 -94 27 -128 58 -53 49 -57 98 -11
151 30 36 40 80 17 80 -8 0 -75 -57 -151 -127z"/>
</g>
</svg>
